<svg xmlns="http://www.w3.org/2000/svg" xmlns:xlink="http://www.w3.org/1999/xlink" viewBox="0 0 1584.79 1652"><defs><style>.cls-1{fill:#e5e5e5;}.cls-2{fill:#ff83dc;}.cls-3{fill:#ff60cf;}.cls-4{fill:url(#linear-gradient);}.cls-5{fill:url(#linear-gradient-2);}.cls-6{fill:url(#linear-gradient-3);}.cls-7{fill:url(#linear-gradient-4);}</style><linearGradient id="linear-gradient" x1="235.87" y1="111.74" x2="294.91" y2="111.74" gradientUnits="userSpaceOnUse"><stop offset="0" stop-color="#4f4f4f"/><stop offset="0.29" stop-color="#bdbdbd"/><stop offset="0.62" stop-color="#bdbdbd"/><stop offset="1" stop-color="#4f4f4f"/></linearGradient><linearGradient id="linear-gradient-2" x1="587.2" y1="111.74" x2="646.25" y2="111.74" xlink:href="#linear-gradient"/><linearGradient id="linear-gradient-3" x1="938.54" y1="111.74" x2="997.58" y2="111.74" xlink:href="#linear-gradient"/><linearGradient id="linear-gradient-4" x1="1289.87" y1="111.74" x2="1348.92" y2="111.74" xlink:href="#linear-gradient"/></defs><g id="Objects"><path class="cls-1" d="M1584.79,432.42v1086A133.56,133.56,0,0,1,1451.23,1652H133.56A133.56,133.56,0,0,1,0,1518.44v-1086L42.57,389H1536.38Z"/><path class="cls-2" d="M1584.79,199.7V432.42H0V199.7A132.49,132.49,0,0,1,132.48,67.21H1452.3A132.49,132.49,0,0,1,1584.79,199.7Z"/><circle class="cls-3" cx="265.39" cy="210.89" r="48.88"/><rect class="cls-4" x="235.87" width="59.05" height="223.48" rx="29.52"/><circle class="cls-3" cx="616.73" cy="210.89" r="48.88"/><rect class="cls-5" x="587.2" width="59.05" height="223.48" rx="29.52"/><circle class="cls-3" cx="968.06" cy="210.89" r="48.88"/><rect class="cls-6" x="938.54" width="59.05" height="223.48" rx="29.52"/><circle class="cls-3" cx="1319.4" cy="210.89" r="48.88"/><rect class="cls-7" x="1289.87" width="59.05" height="223.48" rx="29.52"/></g></svg>