<?xml version="1.0" standalone="no"?>
<!DOCTYPE svg PUBLIC "-//W3C//DTD SVG 20010904//EN"
 "http://www.w3.org/TR/2001/REC-SVG-20010904/DTD/svg10.dtd">
<svg version="1.0" xmlns="http://www.w3.org/2000/svg"
 width="512.000000pt" height="512.000000pt" viewBox="0 0 512.000000 512.000000"
 preserveAspectRatio="xMidYMid meet">

<g transform="translate(0.000000,512.000000) scale(0.100000,-0.100000)"
fill="#000000" stroke="none">
<path d="M4720 4320 l0 -80 45 -41 c30 -27 60 -72 88 -127 l42 -85 3 -1586 c2
-1189 0 -1600 -9 -1641 -38 -179 -189 -316 -375 -340 -53 -7 -717 -10 -2009
-8 l-1930 3 -56 21 c-64 25 -132 65 -171 102 l-27 25 -153 -7 c-83 -4 -153 -8
-155 -10 -7 -7 36 -128 60 -169 34 -57 132 -148 191 -177 109 -52 -12 -50
2302 -50 2137 0 2152 0 2218 20 133 41 254 155 308 287 l23 58 3 1725 c2 1250
0 1742 -8 1785 -23 121 -106 245 -207 308 -38 24 -149 67 -173 67 -6 0 -10
-32 -10 -80z"/>
<path d="M2118 1473 c-19 -5 -25 -24 -54 -167 -16 -82 -20 -89 -48 -101 -28
-12 -299 -36 -400 -35 l-38 0 4 -73 c3 -63 8 -80 32 -112 55 -71 73 -75 405
-75 280 0 297 1 339 21 26 13 54 38 70 62 25 38 27 48 30 175 4 165 0 193 -41
239 -49 55 -97 73 -197 72 -47 -1 -93 -3 -102 -6z"/>
</g>
</svg>
