<?xml version="1.0" standalone="no"?>
<!DOCTYPE svg PUBLIC "-//W3C//DTD SVG 20010904//EN"
 "http://www.w3.org/TR/2001/REC-SVG-20010904/DTD/svg10.dtd">
<svg version="1.0" xmlns="http://www.w3.org/2000/svg"
 width="512.000000pt" height="512.000000pt" viewBox="0 0 512.000000 512.000000"
 preserveAspectRatio="xMidYMid meet">

<g transform="translate(0.000000,512.000000) scale(0.100000,-0.100000)"
fill="#000000" stroke="none">
<path d="M1063 4714 c-12 -3 -34 -19 -48 -35 -23 -29 -25 -38 -27 -147 -3
-197 4 -456 14 -474 34 -66 203 -63 239 4 15 29 19 152 12 397 -6 191 -6 195
-32 223 -22 24 -36 30 -81 33 -30 2 -65 1 -77 -1z"/>
<path d="M1623 4705 c-56 -24 -57 -33 -58 -348 l0 -289 33 -29 c28 -25 40 -29
92 -29 71 0 107 15 126 51 21 41 20 544 -1 595 -24 58 -117 82 -192 49z"/>
<path d="M2214 4713 c-12 -2 -32 -15 -45 -29 -24 -26 -24 -26 -27 -312 -3
-310 -1 -321 50 -348 33 -17 124 -18 158 -1 14 7 33 28 43 47 17 32 18 59 15
305 -4 237 -6 273 -22 297 -27 41 -93 57 -172 41z"/>
<path d="M2775 4707 c-57 -26 -60 -42 -60 -353 l0 -283 27 -28 c22 -22 39 -27
88 -31 69 -5 112 9 135 44 14 21 15 63 13 314 l-3 290 -26 26 c-32 32 -125 43
-174 21z"/>
<path d="M3352 4705 c-57 -25 -62 -51 -62 -349 0 -169 4 -274 11 -289 17 -38
60 -57 128 -57 53 0 65 4 93 29 l33 29 0 289 c0 218 -4 294 -14 311 -26 47
-122 66 -189 37z"/>
<path d="M3931 4708 c-13 -7 -32 -24 -43 -38 -17 -23 -19 -50 -21 -305 -2
-304 -1 -312 53 -340 60 -31 175 -12 198 33 10 18 17 264 14 469 -2 119 -3
124 -30 154 -23 26 -36 31 -87 35 -39 3 -69 0 -84 -8z"/>
<path d="M931 2434 c-33 -27 -48 -77 -35 -116 4 -12 36 -54 72 -91 l66 -68 78
78 78 77 -58 59 c-91 94 -144 109 -201 61z"/>
<path d="M2665 2450 c-11 -4 -48 -37 -82 -72 l-62 -63 73 -77 73 -76 67 67
c36 36 70 80 74 96 24 86 -60 160 -143 125z"/>
<path d="M1943 1406 c-18 -11 -33 -25 -33 -30 0 -5 73 -107 163 -227 103 -140
170 -221 185 -225 28 -8 52 11 52 41 0 13 -66 110 -161 236 -88 118 -163 217
-167 220 -4 4 -22 -3 -39 -15z"/>
</g>
</svg>
