<?xml version="1.0" standalone="no"?>
<!DOCTYPE svg PUBLIC "-//W3C//DTD SVG 20010904//EN"
 "http://www.w3.org/TR/2001/REC-SVG-20010904/DTD/svg10.dtd">
<svg version="1.0" xmlns="http://www.w3.org/2000/svg"
 width="736.000000pt" height="736.000000pt" viewBox="0 0 736.000000 736.000000"
 preserveAspectRatio="xMidYMid meet">

<g transform="translate(0.000000,736.000000) scale(0.100000,-0.100000)"
fill="#000000" stroke="none">
<path d="M3190 6381 c-50 -10 -104 -38 -131 -68 -13 -15 -18 -23 -10 -18 9 5
7 -1 -4 -19 -9 -14 -21 -43 -26 -63 -5 -21 -9 -227 -9 -459 0 -231 -3 -423 -6
-427 -4 -4 -13 -2 -21 4 -18 15 -17 7 6 -44 25 -56 31 -86 21 -106 -4 -9 -18
-37 -30 -63 -13 -27 -27 -48 -32 -48 -4 0 -8 -9 -8 -19 0 -11 -10 -32 -23 -48
-13 -15 -26 -36 -30 -45 -3 -10 -10 -18 -15 -18 -5 0 -12 -14 -16 -31 -3 -17
-10 -28 -15 -24 -14 8 -25 -58 -18 -106 3 -21 2 -39 -3 -39 -13 0 -20 28 -21
83 0 29 -3 45 -6 37 -9 -23 -25 -30 -45 -19 -14 7 -23 5 -36 -7 -16 -17 -20
-45 -22 -174 0 -29 -3 -40 -9 -32 -6 11 -10 10 -15 -4 -4 -10 -2 -21 5 -24 8
-6 8 -13 -1 -29 -8 -16 -9 -31 -2 -51 6 -16 8 -31 4 -34 -7 -8 -13 -35 -12
-56 3 -79 1 -115 -9 -118 -6 -2 -11 -10 -11 -18 0 -8 -5 -14 -10 -14 -6 0 -8
-12 -5 -27 2 -15 0 -30 -4 -33 -16 -9 0 -58 20 -63 18 -5 28 -28 12 -26 -5 1
-17 1 -27 0 -18 -1 -17 -3 4 -21 13 -11 26 -20 31 -20 15 0 -4 -38 -24 -48
-21 -10 -20 -11 8 -11 l30 -1 -30 -20 c-23 -15 -26 -20 -11 -20 15 0 16 -3 6
-15 -10 -13 -9 -15 9 -15 11 0 21 -6 21 -13 0 -8 12 -20 28 -27 15 -8 29 -16
31 -17 2 -1 -2 -9 -8 -17 -9 -11 -10 -20 -1 -35 9 -17 8 -20 -5 -15 -18 7 -20
-17 -3 -34 10 -10 10 -15 -2 -22 -16 -10 -8 -14 24 -10 16 1 16 0 5 -13 -8 -8
-16 -13 -19 -12 -3 2 -12 0 -20 -6 -12 -7 -10 -9 9 -9 20 0 23 -4 19 -30 -3
-16 -1 -30 4 -30 4 0 8 -7 8 -15 0 -20 -34 -19 -55 1 -9 9 -19 13 -23 10 -3
-4 -2 -10 3 -14 6 -4 16 -15 24 -24 12 -16 10 -19 -10 -27 -18 -7 -19 -10 -6
-10 24 -1 22 -31 -2 -31 -11 0 -23 -4 -26 -10 -3 -5 3 -10 14 -10 12 0 21 -4
21 -10 0 -5 -10 -10 -22 -10 -14 0 -18 -3 -12 -8 6 -4 14 -17 18 -29 6 -18 4
-22 -7 -17 -8 3 -18 1 -22 -5 -3 -6 1 -11 10 -11 9 0 14 -4 10 -9 -3 -6 3 -14
12 -20 16 -9 16 -12 3 -21 -8 -5 -24 -10 -35 -10 l-20 -1 20 -11 c30 -16 31
-18 16 -28 -20 -12 -6 -40 20 -40 18 0 20 -2 8 -16 -10 -12 -10 -17 0 -23 9
-6 8 -10 -6 -16 -17 -7 -17 -8 2 -16 13 -5 6 -7 -24 -3 -38 4 -42 2 -31 -11 7
-8 16 -12 21 -9 5 3 6 -2 3 -10 -4 -10 -17 -13 -40 -11 -34 3 -35 3 -18 -16
16 -18 16 -19 -1 -19 -14 0 -15 -3 -5 -15 25 -30 -10 -15 -62 28 -128 103
-141 112 -129 89 8 -14 8 -22 1 -22 -5 0 -10 -8 -10 -17 0 -15 2 -16 10 -3 6
9 10 10 10 3 0 -16 -17 -26 -25 -13 -10 17 -25 11 -18 -7 4 -10 2 -14 -5 -9
-20 12 -31 -26 -15 -50 11 -17 11 -24 2 -30 -7 -4 -9 -3 -6 3 4 6 -1 17 -10
24 -15 12 -16 12 -10 -4 5 -15 4 -16 -13 -7 -27 14 -49 3 -42 -22 3 -13 1 -19
-5 -15 -6 4 -13 -3 -16 -14 -4 -14 -11 -20 -21 -16 -8 3 -18 2 -21 -3 -4 -6
-1 -10 4 -10 6 0 11 -5 11 -11 0 -6 -6 -9 -14 -6 -11 4 -13 -2 -11 -25 4 -30
4 -30 -16 -12 -15 13 -18 14 -14 3 4 -10 -3 -19 -20 -27 -15 -7 -25 -20 -25
-32 0 -12 -4 -18 -10 -15 -8 5 -13 -15 -9 -41 0 -4 -5 -11 -13 -15 -11 -7 -10
-11 2 -19 13 -8 11 -11 -8 -16 -18 -5 -20 -9 -10 -21 10 -12 9 -17 -2 -24 -44
-26 -46 -28 -30 -39 13 -9 13 -11 0 -20 -8 -5 -12 -10 -8 -10 5 0 -1 -9 -13
-21 -14 -14 -20 -31 -18 -52 4 -44 -12 -137 -22 -137 -5 0 -9 -17 -9 -37 0
-35 -1 -36 -15 -17 -14 18 -14 18 -15 -8 0 -15 -5 -30 -11 -33 -6 -4 -8 -14
-4 -23 3 -8 0 -19 -6 -23 -7 -4 -12 -21 -12 -38 0 -16 -4 -28 -9 -25 -4 3 -8
-6 -8 -20 0 -14 -4 -26 -10 -26 -5 0 -10 5 -10 10 0 6 -5 10 -10 10 -7 0 -9
-21 -5 -55 3 -40 1 -55 -8 -55 -8 0 -7 -4 3 -10 11 -8 8 -9 -12 -4 -22 5 -28
3 -28 -10 0 -9 7 -16 15 -16 19 0 19 -5 -2 -36 -12 -19 -18 -22 -25 -12 -5 8
-6 -2 -2 -24 4 -25 2 -38 -5 -38 -18 0 -44 -60 -31 -75 13 -15 -5 -69 -20 -60
-5 3 -10 -3 -10 -13 0 -11 -7 -37 -16 -57 -12 -30 -18 -35 -26 -24 -8 11 -8
10 -4 -5 4 -11 1 -23 -6 -27 -9 -6 -9 -11 1 -23 11 -13 11 -19 0 -32 -8 -9
-14 -24 -14 -33 0 -11 -8 -15 -27 -14 -27 2 -28 0 -29 -45 -1 -26 -1 -55 0
-65 1 -9 -3 -17 -9 -17 -6 0 -9 -3 -7 -7 3 -5 1 -26 -3 -48 -6 -30 -8 -33 -9
-13 -1 35 -21 47 -21 13 0 -14 -7 -28 -15 -31 -9 -4 -15 -19 -15 -40 0 -31
-29 -99 -63 -146 -9 -14 -9 -22 1 -38 11 -18 10 -20 -18 -20 -20 0 -33 7 -42
23 -12 21 -12 21 -19 -13 -6 -27 -4 -38 8 -48 12 -9 14 -15 6 -23 -8 -8 -15
-4 -26 12 l-16 22 -7 -27 c-3 -14 -12 -26 -19 -26 -15 0 -30 -70 -21 -98 9
-27 -19 -49 -39 -32 -21 18 -33 3 -13 -16 14 -14 13 -21 -11 -69 -14 -30 -32
-54 -39 -55 -7 0 -15 -13 -18 -30 -8 -37 -44 -41 -66 -9 l-14 21 -31 -26 c-27
-23 -33 -35 -36 -79 -3 -41 -5 -47 -11 -29 -11 29 -20 28 -34 -3 -6 -14 -16
-25 -21 -25 -5 0 -15 -23 -22 -50 -11 -41 -17 -50 -35 -50 -17 0 -21 -4 -17
-20 3 -11 1 -20 -5 -20 -5 0 -19 -16 -30 -35 -12 -19 -32 -37 -46 -41 -18 -4
-27 -15 -32 -37 -3 -18 -14 -43 -24 -57 -22 -33 -34 -62 -31 -79 1 -8 -7 -23
-19 -35 -40 -41 -61 -70 -56 -81 2 -7 -7 -20 -20 -30 -13 -10 -24 -26 -24 -36
0 -9 -4 -19 -9 -21 -5 -1 -12 -20 -16 -41 l-7 -37 823 2 823 3 57 225 c31 124
75 293 98 375 23 83 62 224 87 315 25 91 77 275 116 410 38 135 97 339 129
454 66 231 126 392 201 539 43 84 67 115 181 235 73 76 146 149 163 162 17 14
69 54 114 89 45 35 105 86 133 115 29 28 81 72 117 98 91 65 251 213 298 276
21 29 56 66 78 82 37 28 43 29 145 30 65 0 125 6 158 16 63 18 121 72 139 129
9 29 29 54 73 90 34 27 72 69 86 93 23 39 25 50 18 105 -4 34 -6 75 -6 91 1
22 -2 27 -14 22 -14 -5 -14 -2 0 24 19 37 19 34 -9 64 -24 27 -46 34 -46 16 0
-5 4 -10 8 -10 17 0 -1 -144 -20 -156 -5 -3 -13 -16 -18 -29 -6 -15 -16 -23
-29 -22 -25 2 -36 55 -26 130 9 61 19 77 52 77 15 0 22 4 17 11 -3 6 -19 9
-35 5 -61 -12 -29 14 105 84 95 50 81 227 -22 276 -20 9 -44 13 -59 9 -32 -8
-21 -18 37 -34 45 -13 80 -36 80 -53 0 -5 -3 -7 -7 -5 -5 3 -6 -14 -5 -37 2
-27 -1 -46 -10 -53 -10 -9 -13 -2 -13 38 0 37 -5 54 -22 71 -13 12 -23 17 -23
11 0 -7 4 -14 9 -17 24 -15 -31 -156 -60 -156 -16 0 -41 -29 -34 -40 3 -5 4
-10 1 -10 -3 0 -15 19 -27 42 -18 35 -21 54 -17 114 3 44 12 83 21 98 11 17
17 47 17 89 l0 64 49 6 c75 9 170 64 155 89 -3 4 3 19 11 32 31 47 -2 110 -69
136 -23 8 -27 8 -19 -2 6 -7 9 -34 9 -59 -1 -41 -6 -51 -46 -88 -24 -22 -47
-41 -50 -41 -22 1 -33 25 -37 86 -6 79 7 121 39 133 22 9 22 10 -11 22 l-34
12 4 666 4 666 -26 50 c-35 69 -94 104 -191 116 -87 10 -1008 10 -1058 0z
m264 -77 c3 -9 6 -24 6 -35 0 -11 11 -31 25 -44 24 -25 24 -25 240 -25 260 0
285 7 285 86 0 33 29 38 163 30 157 -9 194 -31 217 -128 7 -29 8 -445 3 -1318
-8 -1255 -8 -1276 -28 -1310 -12 -21 -39 -44 -65 -58 l-45 -23 -535 3 c-514 3
-536 4 -569 23 -19 11 -43 38 -55 60 -21 40 -21 42 -24 1333 -2 1263 -2 1293
17 1330 38 74 82 91 242 92 98 0 118 -3 123 -16z m-454 -1625 c0 -142 -2 -160
-16 -155 -8 3 -12 2 -9 -3 3 -5 -4 -16 -16 -25 -21 -14 -21 -15 12 -18 l34 -3
-37 -17 c-28 -12 -38 -23 -38 -40 -1 -17 -3 -19 -9 -8 -4 8 -4 76 0 150 5 88
5 142 -2 156 -9 17 -4 27 30 65 23 24 41 47 41 51 0 5 2 8 5 8 3 0 5 -72 5
-161z m-283 74 c-3 -10 -5 -4 -5 12 0 17 2 24 5 18 2 -7 2 -21 0 -30z m1920
-450 c-3 -10 -5 -4 -5 12 0 17 2 24 5 18 2 -7 2 -21 0 -30z m-1881 -590 c-11
-11 -19 6 -11 24 8 17 8 17 12 0 3 -10 2 -21 -1 -24z m-396 -544 c0 -5 -7 -9
-15 -9 -9 0 -12 6 -9 15 6 15 24 11 24 -6z m780 -280 c0 -9 -7 -22 -15 -29
-13 -11 -15 -8 -15 14 0 37 -16 32 -30 -9 -6 -19 -15 -35 -20 -35 -11 0 7 64
19 68 4 1 17 9 27 17 21 14 34 5 34 -26z m-1133 -231 c-3 -8 -6 -5 -6 6 -1 11
2 17 5 13 3 -3 4 -12 1 -19z"/>
<path d="M2991 5364 c0 -11 3 -14 6 -6 3 7 2 16 -1 19 -3 4 -6 -2 -5 -13z"/>
<path d="M2665 3860 c3 -5 13 -10 21 -10 8 0 12 5 9 10 -3 6 -13 10 -21 10 -8
0 -12 -4 -9 -10z"/>
<path d="M2394 3299 c13 -21 76 -76 76 -66 0 1 -21 23 -46 47 -29 28 -40 35
-30 19z"/>
</g>
</svg>
