<?xml version="1.0" standalone="no"?>
<!DOCTYPE svg PUBLIC "-//W3C//DTD SVG 20010904//EN"
 "http://www.w3.org/TR/2001/REC-SVG-20010904/DTD/svg10.dtd">
<svg version="1.0" xmlns="http://www.w3.org/2000/svg"
 width="920.000000pt" height="1392.000000pt" viewBox="0 0 920.000000 1392.000000"
 preserveAspectRatio="xMidYMid meet">

<g transform="translate(0.000000,1392.000000) scale(0.100000,-0.100000)"
fill="#000000" stroke="none">
<path d="M2276 13909 c-169 -18 -314 -58 -441 -122 -223 -111 -387 -313 -460
-564 -50 -170 -57 -254 -58 -699 -1 -404 -1 -411 -22 -420 -11 -5 -21 -20 -23
-36 -4 -32 14 -38 23 -8 17 54 25 -9 25 -205 0 -197 -9 -269 -24 -195 -9 46
-28 37 -24 -12 2 -33 8 -45 25 -53 21 -9 22 -12 20 -227 -1 -201 -2 -218 -19
-224 -17 -5 -18 -29 -18 -484 1 -452 2 -479 19 -485 16 -5 18 -19 19 -127 0
-109 -2 -124 -18 -135 -18 -13 -19 -34 -19 -476 1 -315 4 -449 10 -422 6 23 9
214 7 452 -2 296 0 409 8 402 6 -5 14 -6 17 -2 4 3 7 -190 7 -431 0 -253 -4
-435 -9 -432 -5 3 -16 -5 -25 -19 -15 -23 -15 -25 2 -34 18 -10 19 -122 19
-3748 0 -2817 3 -3758 12 -3821 46 -319 182 -565 396 -712 24 -17 87 -51 140
-77 52 -25 94 -47 92 -49 -1 -1 -25 -4 -52 -5 -63 -3 -97 -19 -84 -40 5 -8 9
-10 9 -5 0 5 6 4 13 -2 7 -6 53 -14 103 -18 158 -12 5402 -8 5469 4 96 18 108
21 119 33 8 9 8 10 -1 5 -6 -3 -14 0 -16 6 -4 10 -8 9 -16 -2 -6 -9 -11 -10
-11 -3 0 11 -16 14 -123 29 l-47 6 97 49 c306 150 479 423 522 817 8 73 11
1211 11 3977 l0 3874 21 6 c13 4 18 12 15 22 -3 8 -6 354 -6 769 0 664 -2 754
-15 754 -13 0 -15 121 -15 1028 0 1139 -2 1190 -61 1377 -100 317 -294 519
-597 619 -229 76 -27 70 -2617 72 -1276 1 -2356 -2 -2399 -7z m4796 -41 c111
-20 272 -71 323 -103 l40 -25 -75 4 c-41 2 -119 15 -172 29 -54 15 -135 31
-180 37 -58 8 -790 10 -2433 8 l-2350 -3 -105 -27 c-58 -14 -127 -35 -155 -45
-47 -18 -137 -25 -151 -11 -10 10 135 75 226 101 81 24 208 44 315 51 28 1
1081 2 2340 1 2029 -1 2300 -3 2377 -17z m-5142 -223 c-7 -8 -17 -15 -23 -15
-6 0 -2 7 9 15 25 19 30 19 14 0z m-60 -33 c-14 -9 -37 -29 -52 -44 -16 -14
-28 -23 -28 -20 0 4 -4 1 -9 -7 -5 -8 -8 -24 -7 -36 2 -12 -3 -22 -10 -22 -9
0 -10 5 -3 19 14 26 4 22 -15 -6 -11 -18 -13 -27 -4 -32 7 -5 8 -3 3 6 -5 9
-4 11 4 6 14 -9 -4 -36 -24 -36 -8 0 -11 -8 -8 -19 3 -10 0 -22 -6 -25 -7 -5
-9 0 -5 11 5 14 4 15 -4 4 -6 -8 -8 -21 -4 -29 3 -10 1 -13 -6 -8 -8 5 -10 1
-5 -10 4 -12 3 -15 -6 -10 -6 4 -10 4 -9 -1 1 -4 -8 -27 -20 -50 -12 -24 -20
-43 -16 -43 4 0 1 -7 -6 -15 -7 -8 -9 -15 -5 -15 4 0 0 -12 -10 -26 -11 -18
-12 -24 -4 -18 11 6 12 5 2 -7 -6 -8 -14 -26 -17 -39 -3 -14 -7 -35 -10 -47
-12 -46 -14 -59 -22 -123 -11 -79 -12 -11440 -2 -11525 4 -33 10 -71 14 -85 3
-14 7 -36 8 -50 1 -14 6 -31 10 -38 4 -7 5 -16 1 -21 -3 -6 3 -14 12 -20 10
-6 14 -11 9 -11 -5 0 -2 -8 5 -17 12 -15 12 -16 -1 -8 -9 5 -7 -1 5 -15 11
-13 14 -20 7 -16 -11 7 -11 4 0 -13 7 -12 19 -19 28 -16 12 4 12 2 -1 -8 -14
-10 -14 -14 -2 -25 7 -7 10 -18 7 -24 -5 -7 -2 -8 6 -3 10 6 12 4 7 -9 -4 -10
-3 -15 3 -11 6 3 10 -1 10 -10 0 -9 -4 -13 -10 -10 -5 3 0 -10 13 -29 12 -19
27 -35 34 -36 7 0 10 -6 7 -14 -11 -30 28 -78 131 -161 11 -9 1 -5 -23 8 -161
91 -281 276 -334 517 l-23 105 0 5775 c0 5528 1 5779 18 5864 50 243 159 421
327 530 30 20 57 36 60 35 3 0 -6 -8 -20 -17z m5568 -18 c167 -107 277 -290
329 -549 17 -86 18 -336 21 -5755 2 -4026 0 -5702 -8 -5793 -14 -165 -48 -298
-106 -417 -40 -80 -60 -108 -133 -180 -48 -47 -107 -95 -132 -108 -26 -14 -34
-16 -19 -5 52 37 90 75 84 84 -3 5 -2 9 3 8 21 -4 32 2 27 15 -3 8 0 17 7 22
8 5 10 3 4 -7 -8 -12 -6 -12 8 0 9 7 15 17 12 21 -3 5 2 16 11 24 8 9 11 16 5
16 -14 0 -32 -35 -23 -45 4 -5 2 -5 -5 -1 -9 5 -8 15 5 40 11 22 20 30 25 22
5 -6 7 -2 4 12 -3 14 1 27 12 35 23 16 41 46 20 32 -8 -5 -7 -3 3 7 13 12 15
18 6 21 -8 3 -5 6 6 6 13 1 17 6 13 21 -3 10 -2 19 2 18 19 -2 24 3 11 12 -12
8 -12 10 5 10 17 0 17 2 5 10 -11 7 -11 10 -2 10 7 0 10 5 7 10 -3 6 -1 10 4
10 6 0 10 3 9 8 -1 4 4 25 10 47 6 22 13 51 16 65 3 14 7 36 10 50 3 13 9 61
13 105 10 103 10 11367 1 11460 -4 39 -11 86 -14 105 -3 19 -7 40 -8 45 -1 6
-4 15 -7 20 -4 6 -5 18 -4 28 2 9 -1 17 -6 17 -6 0 -8 4 -5 8 3 5 -1 21 -9 36
-8 14 -10 24 -5 21 6 -3 7 1 4 9 -3 9 -10 13 -15 10 -5 -3 -6 2 -3 11 4 8 -2
23 -13 33 -10 9 -13 13 -5 8 11 -8 11 -5 1 17 -7 15 -17 27 -22 27 -5 0 -3 8
4 17 10 11 10 14 2 9 -7 -4 -13 -2 -13 3 0 23 -2 26 -21 33 -17 7 -18 11 -8
30 11 20 11 22 -3 10 -13 -10 -18 -10 -24 -1 -4 7 -3 9 3 6 6 -4 13 -1 16 7 6
16 -1 26 -17 26 -6 0 -4 -5 4 -10 8 -5 10 -10 4 -10 -6 0 -18 8 -25 17 -10 11
-10 14 -1 9 7 -4 12 -2 12 6 0 15 -41 54 -52 50 -5 -1 -7 3 -5 10 1 6 -22 28
-52 50 -69 48 -58 50 17 2z m200 -69 c75 -70 186 -221 191 -258 0 -4 7 -22 15
-41 19 -46 43 -155 56 -256 7 -59 10 -1833 10 -5790 0 -4923 -2 -5718 -14
-5800 -15 -99 -47 -213 -74 -265 -18 -37 -119 -161 -158 -195 l-28 -25 25 35
c78 108 136 255 166 425 17 95 18 375 18 5850 0 5482 -1 5754 -18 5845 -43
229 -109 367 -241 510 -63 67 -40 52 52 -35z m-5975 23 c-93 -100 -143 -189
-191 -338 -61 -194 -57 244 -57 -6015 0 -5568 1 -5743 19 -5845 32 -178 89
-319 179 -439 58 -78 32 -56 -66 57 -48 54 -97 121 -111 148 -28 57 -61 179
-76 283 -7 49 -10 1932 -10 5794 0 6196 -3 5808 51 5991 20 65 63 164 78 176
3 3 19 24 35 48 27 40 180 192 193 192 3 0 -16 -24 -44 -52z m1290 -29 c34
-15 45 -42 50 -121 9 -132 85 -244 207 -302 l65 -31 1360 0 1360 0 57 27 c127
59 194 158 208 306 7 76 11 89 35 110 l27 23 367 -3 366 -3 80 -28 c201 -71
349 -231 400 -432 13 -53 15 -712 15 -5865 0 -5142 -2 -5813 -15 -5865 -43
-170 -162 -318 -316 -394 -156 -77 48 -72 -2616 -69 l-2388 3 -80 27 c-210 72
-367 250 -410 463 -14 73 -15 621 -13 5875 l3 5795 22 65 c71 205 252 371 455
415 81 17 724 21 761 4z m-1123 -3 c0 -2 -8 -10 -17 -17 -16 -13 -17 -12 -4 4
13 16 21 21 21 13z m-40 -50 c0 -2 -8 -10 -17 -17 -16 -13 -17 -12 -4 4 13 16
21 21 21 13z m-30 -42 c0 -8 -19 -13 -24 -6 -3 5 1 9 9 9 8 0 15 -2 15 -3z
m3610 -35 c0 -5 -4 -9 -10 -9 -5 0 -10 7 -10 16 0 8 5 12 10 9 6 -3 10 -10 10
-16z m-3630 7 c0 -2 -8 -10 -17 -17 -16 -13 -17 -12 -4 4 13 16 21 21 21 13z
m-39 -59 c-10 -9 -11 -8 -5 6 3 10 9 15 12 12 3 -3 0 -11 -7 -18z m-377 -2258
c3 -17 6 -213 6 -435 0 -353 -2 -405 -16 -418 -8 -9 -16 -16 -17 -16 -1 0 -2
202 -2 450 0 327 3 450 11 450 6 0 14 -14 18 -31z m6646 -1030 c0 -671 -1
-710 -17 -707 -17 3 -18 45 -21 681 -2 593 0 681 13 707 9 17 18 30 20 30 3 0
5 -320 5 -711z m-6262 -9016 c-1 -5 4 -19 11 -33 l12 -25 -20 25 c-10 13 -17
28 -15 32 7 10 15 10 12 1z m61 -138 c0 -5 -6 1 -14 15 -8 14 -14 30 -14 35 0
6 6 -1 14 -15 8 -14 14 -29 14 -35z m152 -132 c13 -17 13 -17 -6 -3 -11 8 -22
16 -24 17 -2 2 0 3 6 3 6 0 17 -8 24 -17z m5439 3 c0 -2 -7 -7 -16 -10 -8 -3
-12 -2 -9 4 6 10 25 14 25 6z m134 -73 c-78 -63 -249 -127 -424 -160 -90 -17
-230 -18 -2435 -18 -2230 0 -2345 1 -2445 18 -172 31 -343 95 -420 158 l-25
21 60 -6 c33 -3 92 -18 131 -34 74 -31 153 -53 269 -74 56 -10 542 -13 2435
-13 l2365 0 101 22 c55 11 143 38 195 58 108 42 140 51 187 51 l34 0 -28 -23z"/>
<path d="M7565 1021 c-3 -5 -2 -12 3 -15 5 -3 9 1 9 9 0 17 -3 19 -12 6z"/>
</g>
</svg>
