<?xml version="1.0" encoding="utf-8"?>
<!-- Generator: Adobe Illustrator 27.5.0, SVG Export Plug-In . SVG Version: 6.00 Build 0)  -->
<svg version="1.1" xmlns="http://www.w3.org/2000/svg" xmlns:xlink="http://www.w3.org/1999/xlink" x="0px" y="0px"
	 viewBox="0 0 500 500" style="enable-background:new 0 0 500 500;" xml:space="preserve">
<g id="OBJECTS">
	<g>
		<g>
			<g>
				<path style="fill:#1AECCF;" d="M319.484,220.74c-0.01,0.29,0,0.58-0.01,0.87c-0.02,0.39-0.06,0.77-0.1,1.16
					c-0.03,0.27-0.04,0.54-0.08,0.81c-0.08,0.65-0.2,1.3-0.34,1.93c-3.95,28.05-20.72,53.9-47.6,68.24
					c-0.75,0.4-1.51,0.79-2.27,1.17c-0.23,0.11-0.45,0.22-0.68,0.33c-0.54,0.26-1.07,0.52-1.61,0.77c-0.27,0.13-0.54,0.25-0.81,0.37
					c-0.5,0.23-1,0.45-1.5,0.67c-0.29,0.12-0.57,0.24-0.85,0.36c-0.5,0.21-1,0.41-1.5,0.61c-0.28,0.11-0.56,0.23-0.84,0.33
					c-0.52,0.21-1.03,0.4-1.55,0.59c-0.26,0.1-0.53,0.19-0.79,0.29c-0.57,0.2-1.13,0.4-1.7,0.59c-0.22,0.07-0.43,0.14-0.64,0.21
					c-0.75,0.25-1.5,0.48-2.25,0.71c-0.03,0.01-0.07,0.02-0.1,0.03c-0.81,0.24-1.63,0.47-2.45,0.69c-0.09,0.03-0.18,0.05-0.28,0.07
					c-0.69,0.19-1.39,0.36-2.09,0.53c-0.22,0.05-0.44,0.1-0.65,0.15c-0.58,0.13-1.16,0.27-1.75,0.39c-0.25,0.05-0.5,0.1-0.75,0.15
					c-0.55,0.11-1.1,0.22-1.66,0.32c-0.26,0.05-0.52,0.1-0.78,0.14c-0.56,0.1-1.11,0.19-1.66,0.27c-0.25,0.04-0.51,0.08-0.76,0.12
					c-0.58,0.09-1.17,0.16-1.75,0.24c-0.22,0.02-0.44,0.05-0.65,0.08c-0.7,0.08-1.4,0.16-2.1,0.22c-0.1,0.01-0.2,0.03-0.3,0.03
					c-1.64,0.16-3.27,0.26-4.91,0.32c-0.15,0.01-0.3,0.01-0.46,0.02c-0.65,0.02-1.3,0.04-1.95,0.04c-0.21,0.01-0.43,0.01-0.65,0.01
					c-0.59,0-1.18,0-1.76-0.01c-0.24,0-0.48-0.01-0.71-0.01c-0.58-0.02-1.15-0.04-1.73-0.06c-0.23-0.01-0.46-0.02-0.7-0.03
					c-0.59-0.03-1.19-0.06-1.79-0.11c-0.2-0.01-0.4-0.02-0.6-0.04c-0.68-0.05-1.36-0.11-2.03-0.17c-0.12-0.01-0.23-0.02-0.35-0.03
					c-1.63-0.17-3.26-0.38-4.88-0.63c-0.04-0.01-0.07-0.01-0.1-0.02c-0.76-0.12-1.51-0.24-2.26-0.38c-0.15-0.03-0.31-0.06-0.46-0.09
					c-0.63-0.12-1.27-0.24-1.89-0.37c-0.2-0.04-0.39-0.08-0.58-0.13c-0.59-0.12-1.19-0.26-1.79-0.4c-0.19-0.05-0.39-0.09-0.58-0.14
					c-0.61-0.15-1.21-0.3-1.81-0.46c-0.17-0.05-0.35-0.09-0.52-0.14c-0.66-0.18-1.31-0.36-1.95-0.55c-0.12-0.04-0.24-0.07-0.35-0.11
					c-2.34-0.7-4.66-1.49-6.93-2.38c-0.11-0.04-0.22-0.08-0.32-0.12c-0.64-0.25-1.27-0.51-1.9-0.77c-0.06-0.02-0.12-0.05-0.18-0.07
					c-0.07-0.03-0.13-0.06-0.2-0.09c-4.21-1.78-8.28-3.88-12.19-6.28c-0.04-0.02-0.07-0.04-0.1-0.06c-1.68-1.03-3.34-2.13-4.96-3.27
					c-0.12-0.09-0.24-0.18-0.37-0.27c-0.75-0.53-1.48-1.08-2.22-1.63c-0.04-0.04-0.08-0.07-0.12-0.1c-0.77-0.59-1.53-1.19-2.29-1.81
					c-0.12-0.1-0.25-0.21-0.38-0.32c-0.62-0.51-1.23-1.03-1.84-1.56c-0.16-0.13-0.31-0.27-0.46-0.4c-0.72-0.64-1.43-1.28-2.13-1.94
					c-0.04-0.03-0.07-0.07-0.11-0.1c-0.65-0.62-1.28-1.24-1.92-1.87c-0.17-0.18-0.35-0.36-0.52-0.53c-0.56-0.57-1.11-1.14-1.65-1.73
					c-0.11-0.12-0.23-0.24-0.35-0.37c-0.63-0.69-1.25-1.39-1.87-2.1c-0.16-0.19-0.32-0.38-0.49-0.57c-0.46-0.54-0.92-1.09-1.37-1.65
					c-0.18-0.23-0.37-0.46-0.56-0.69c-0.57-0.72-1.13-1.44-1.68-2.18c-0.13-0.17-0.25-0.35-0.38-0.52
					c-0.43-0.58-0.85-1.17-1.26-1.76c-0.23-0.32-0.45-0.64-0.67-0.96c-0.32-0.47-0.64-0.95-0.95-1.43
					c-0.23-0.34-0.45-0.68-0.67-1.02c-0.44-0.69-0.87-1.39-1.3-2.1c-0.08-0.14-0.17-0.27-0.25-0.41c-0.12-0.2-0.22-0.41-0.34-0.61
					c-0.55-0.93-1.07-1.87-1.59-2.83c-0.03-0.06-0.07-0.12-0.1-0.18c-2.97-5.56-5.3-11.28-7.03-17.09
					c-1.32-4.44-2.29-8.92-2.92-13.42c-3.79-27.2,4.88-54.9,23.59-75.07c2.72-2.94,5.66-5.73,8.8-8.32
					c4.65-3.84,9.77-7.28,15.3-10.23c0.08-0.05,0.16-0.09,0.24-0.12c0.75-0.4,1.51-0.79,2.26-1.17
					c26.93-13.36,57.45-12.23,82.51,0.57l-0.02,0.04c2.72,1.34,5.18,3.25,7.2,5.67c0.95,1.14,1.8,2.4,2.53,3.76
					c1.53,2.88,2.37,5.96,2.57,9.01c0.56,8.44-3.76,16.83-11.71,21.08c-3.33,1.78-6.91,2.61-10.42,2.61c-1.19,0-2.37-0.09-3.53-0.28
					c-2.12-0.34-4.18-0.98-6.11-1.9c-0.09-0.05-0.19-0.08-0.28-0.14c-0.22-0.12-0.48-0.23-0.72-0.35c-0.83-0.42-1.67-0.81-2.52-1.18
					c-1.62-0.7-3.28-1.31-4.97-1.83c-0.26-0.07-0.52-0.15-0.78-0.22c-0.53-0.15-1.06-0.3-1.6-0.43c-0.32-0.08-0.64-0.16-0.96-0.24
					c-0.5-0.11-1.01-0.21-1.52-0.31c-0.3-0.06-0.59-0.13-0.89-0.18c-0.8-0.14-1.59-0.26-2.39-0.35c-0.21-0.03-0.41-0.05-0.61-0.07
					c-0.72-0.08-1.44-0.15-2.16-0.19c-0.12-0.01-0.24-0.02-0.36-0.03c-0.84-0.05-1.67-0.07-2.5-0.07h-0.55
					c-0.72,0.01-1.44,0.03-2.17,0.07c-0.14,0.01-0.28,0.01-0.43,0.02c-0.84,0.06-1.69,0.13-2.54,0.23
					c-0.14,0.02-0.28,0.04-0.42,0.06c-0.74,0.09-1.48,0.21-2.22,0.34c-0.15,0.03-0.31,0.05-0.47,0.08
					c-0.85,0.16-1.69,0.34-2.54,0.55c-0.1,0.02-0.2,0.05-0.3,0.08c-0.75,0.19-1.5,0.4-2.25,0.63c-0.17,0.05-0.34,0.1-0.52,0.16
					c-0.83,0.26-1.66,0.55-2.49,0.86c-0.06,0.03-0.11,0.05-0.17,0.07c-0.76,0.3-1.51,0.62-2.26,0.95c-0.2,0.09-0.39,0.18-0.59,0.27
					c-0.8,0.37-1.6,0.76-2.39,1.18c-21.34,11.39-30.38,36.82-21.84,58.8c0.69,1.74,1.48,3.47,2.38,5.16
					c0.06,0.11,0.12,0.23,0.18,0.34c0.32,0.57,0.64,1.14,0.97,1.69c0.14,0.24,0.29,0.47,0.44,0.7c0.26,0.42,0.52,0.84,0.79,1.25
					c0.18,0.27,0.37,0.53,0.56,0.8c0.25,0.36,0.5,0.72,0.76,1.07c0.2,0.28,0.41,0.54,0.62,0.82c0.25,0.32,0.51,0.65,0.77,0.97
					c0.22,0.27,0.45,0.54,0.68,0.81c0.26,0.3,0.52,0.6,0.78,0.9l0.72,0.78c0.27,0.29,0.54,0.57,0.82,0.85
					c0.25,0.25,0.5,0.5,0.76,0.75c0.28,0.27,0.56,0.53,0.84,0.79c0.27,0.24,0.53,0.49,0.79,0.72c0.3,0.25,0.59,0.5,0.89,0.75
					c0.27,0.23,0.54,0.45,0.81,0.67c0.31,0.25,0.62,0.48,0.93,0.72c0.27,0.2,0.55,0.42,0.82,0.62c0.33,0.24,0.67,0.47,1.01,0.7
					c0.27,0.18,0.53,0.37,0.8,0.55c0.48,0.31,0.97,0.61,1.47,0.91c0.35,0.22,0.71,0.42,1.07,0.63c0.39,0.22,0.77,0.44,1.17,0.65
					c0.29,0.16,0.6,0.3,0.9,0.46c0.34,0.17,0.69,0.35,1.05,0.52c0.31,0.15,0.63,0.29,0.95,0.43c0.34,0.16,0.69,0.31,1.04,0.46
					c0.32,0.13,0.65,0.26,0.97,0.39c0.35,0.14,0.7,0.27,1.05,0.4c0.34,0.12,0.67,0.24,1,0.35c0.36,0.12,0.71,0.24,1.07,0.35
					c0.33,0.11,0.67,0.21,1.01,0.31c0.36,0.11,0.72,0.21,1.08,0.3c0.34,0.09,0.68,0.18,1.02,0.26c0.37,0.09,0.74,0.18,1.11,0.26
					c0.34,0.07,0.68,0.14,1.02,0.21c0.38,0.07,0.75,0.14,1.13,0.2c0.34,0.06,0.68,0.12,1.01,0.17c0.4,0.06,0.8,0.1,1.19,0.15
					c0.33,0.04,0.65,0.09,0.98,0.12c0.44,0.04,0.88,0.07,1.33,0.1c0.28,0.02,0.56,0.05,0.84,0.07c0.72,0.04,1.43,0.06,2.15,0.07
					c0.26,0,0.52-0.01,0.77-0.01c0.48-0.01,0.95-0.01,1.42-0.03c0.32-0.01,0.63-0.03,0.95-0.05c0.42-0.03,0.84-0.05,1.25-0.08
					c0.34-0.03,0.67-0.07,1-0.11c0.4-0.04,0.8-0.08,1.2-0.14c0.34-0.04,0.68-0.09,1.02-0.15c0.39-0.06,0.79-0.12,1.18-0.19
					c0.34-0.06,0.68-0.13,1.03-0.2c0.39-0.08,0.78-0.17,1.16-0.26c0.35-0.07,0.69-0.16,1.03-0.24c0.38-0.1,0.77-0.21,1.16-0.32
					c0.34-0.09,0.67-0.19,1.01-0.29c0.39-0.12,0.78-0.25,1.16-0.38c0.34-0.11,0.67-0.22,1-0.34c0.27-0.1,0.54-0.21,0.82-0.31
					c0.53-0.21,1.07-0.42,1.6-0.64c0.5-0.22,1-0.43,1.5-0.66c0.14-0.07,0.28-0.13,0.42-0.2c0.65-0.31,1.3-0.63,1.94-0.98
					c14.12-7.53,22.83-21.22,24.64-35.97c0.7-7.18,4.85-13.88,11.68-17.53c0.45-0.24,0.9-0.46,1.36-0.66
					c0.11-0.05,0.23-0.11,0.35-0.16c0.41-0.17,0.83-0.34,1.25-0.49c0.05-0.02,0.09-0.04,0.14-0.05c0.45-0.16,0.9-0.3,1.35-0.43
					c0.14-0.04,0.28-0.08,0.42-0.11c0.37-0.1,0.75-0.19,1.12-0.27c0.1-0.02,0.2-0.04,0.3-0.06c0.44-0.09,0.89-0.15,1.33-0.21
					c0.16-0.02,0.31-0.04,0.46-0.05c0.35-0.04,0.71-0.07,1.06-0.09l0.36-0.03c0.45-0.02,0.9-0.02,1.34-0.02
					c0.14,0.01,0.27,0.01,0.41,0.02c0.38,0.01,0.76,0.03,1.13,0.07c0.07,0,0.14,0,0.21,0.01c0.03,0,0.05,0.01,0.08,0.01
					c0.45,0.04,0.89,0.1,1.34,0.17c0.09,0.02,0.18,0.03,0.27,0.05c0.37,0.06,0.73,0.13,1.09,0.22c0.11,0.02,0.22,0.04,0.33,0.07
					c0.44,0.11,0.88,0.22,1.31,0.35c0.03,0.01,0.07,0.02,0.1,0.03c0.39,0.13,0.78,0.26,1.17,0.41c0.13,0.04,0.25,0.09,0.38,0.14
					c0.33,0.13,0.65,0.27,0.98,0.41c0.09,0.04,0.18,0.08,0.28,0.12c0.39,0.19,0.78,0.38,1.16,0.59c0.12,0.06,0.23,0.13,0.35,0.19
					c0.29,0.16,0.57,0.33,0.85,0.51c0.12,0.07,0.24,0.14,0.35,0.22c0.37,0.23,0.73,0.48,1.08,0.74c0.02,0.01,0.04,0.02,0.05,0.03
					c0.11,0.08,0.22,0.17,0.33,0.26c0.18,0.13,0.35,0.27,0.53,0.41c0.13,0.11,0.26,0.22,0.39,0.33c0.16,0.14,0.32,0.28,0.48,0.42
					c0.13,0.12,0.27,0.25,0.4,0.38c0.14,0.13,0.29,0.27,0.42,0.41c0.14,0.14,0.28,0.28,0.41,0.43c0.13,0.13,0.26,0.27,0.38,0.41
					c0.14,0.15,0.28,0.31,0.41,0.47c0.12,0.13,0.23,0.27,0.34,0.41c0.14,0.17,0.27,0.33,0.4,0.5c0.11,0.15,0.21,0.29,0.32,0.44
					c0.12,0.17,0.25,0.34,0.37,0.52c0.11,0.17,0.21,0.34,0.32,0.5c0.11,0.17,0.21,0.33,0.32,0.5c0.2,0.34,0.4,0.68,0.58,1.03
					c0.32,0.59,0.6,1.19,0.85,1.79c0.17,0.4,0.31,0.8,0.45,1.2c0.08,0.22,0.17,0.43,0.24,0.65c0.11,0.34,0.2,0.69,0.29,1.04
					c0.08,0.29,0.17,0.58,0.24,0.87c0.05,0.25,0.09,0.5,0.14,0.76c0.06,0.32,0.14,0.65,0.19,0.97c0,0,0,0,0,0.01
					c0.01,0.07,0.01,0.13,0.02,0.2c0.04,0.34,0.06,0.68,0.09,1.01c0.03,0.32,0.07,0.64,0.08,0.96
					C319.494,219.99,319.484,220.37,319.484,220.74z"/>
			</g>
			<g>
				<path style="fill:#F7E13E;" d="M359.424,174.71c-0.86,1.56-1.85,3.05-2.96,4.47c-2.8,3.59-6.38,6.66-10.64,8.93
					c-10.35,5.53-22.29,5.07-31.89-0.13l-0.1,0.12c-6.41-3.36-13.76-4.75-21.03-3.85c-4.22,0.52-8.42,1.81-12.39,3.94
					c-10.59,5.64-17.13,15.88-18.56,26.93c-0.1,1.36-0.28,2.72-0.54,4.05c-1.88,9.57-7.86,18.24-17.12,23.18
					c-13.98,7.47-30.86,4.06-40.95-7.28c-1.64-1.85-3.1-3.9-4.34-6.16c-0.07-0.12-0.13-0.25-0.2-0.37
					c-0.66-1.25-1.24-2.52-1.73-3.81c-0.32-0.83-0.6-1.66-0.85-2.5c-4.46-15,2.08-31.54,16.41-39.19c4.09-2.19,8.63-3.52,13.26-3.87
					c4.49-0.34,9.04,0.24,13.3,1.68c2.07,0.7,4.06,1.59,5.96,2.67c2.89,1.65,6.04,2.81,9.31,3.44c7.74,1.49,16.01,0.45,23.51-3.54
					c10.82-5.79,17.43-16.35,18.63-27.71c0.42-5.12,2.02-10.09,4.66-14.51c3.01-5.08,7.41-9.42,13-12.4
					c10.18-5.43,21.92-5.11,31.43-0.12c2.67,1.39,5.15,3.14,7.39,5.24c2.62,2.44,4.89,5.36,6.67,8.7c0.18,0.34,0.36,0.68,0.53,1.03
					C365.174,153.83,364.564,165.4,359.424,174.71z"/>
			</g>
		</g>
		<path style="fill:#13A4D1;" d="M319.474,219.62c0.02,0.37,0.01,0.75,0.01,1.12c-0.01,0.29,0,0.58-0.01,0.87
			c-0.02,0.39-0.06,0.77-0.1,1.16c-0.03,0.27-0.04,0.54-0.08,0.81c-0.08,0.65-0.2,1.3-0.34,1.93c-3.95,28.05-20.72,53.9-47.6,68.24
			c-0.75,0.4-1.51,0.79-2.27,1.17c-0.23,0.11-0.45,0.22-0.68,0.33c-0.54,0.26-1.07,0.52-1.61,0.77c-0.27,0.13-0.54,0.25-0.81,0.37
			c-0.5,0.23-1,0.45-1.5,0.67c-0.29,0.12-0.57,0.24-0.85,0.36c-0.5,0.21-1,0.41-1.5,0.61c-0.28,0.11-0.56,0.23-0.84,0.33
			c-0.52,0.21-1.03,0.4-1.55,0.59c-0.26,0.1-0.53,0.19-0.79,0.29c-0.57,0.2-1.13,0.4-1.7,0.59c-0.22,0.07-0.43,0.14-0.64,0.21
			c-0.75,0.25-1.5,0.48-2.25,0.71c-0.03,0.01-0.07,0.02-0.1,0.03c-0.81,0.24-1.63,0.47-2.45,0.69c-0.09,0.03-0.18,0.05-0.28,0.07
			c-0.69,0.19-1.39,0.36-2.09,0.53c-0.22,0.05-0.44,0.1-0.65,0.15c-0.58,0.13-1.16,0.27-1.75,0.39c-0.25,0.05-0.5,0.1-0.75,0.15
			c-0.55,0.11-1.1,0.22-1.66,0.32c-0.26,0.05-0.52,0.1-0.78,0.14c-0.56,0.1-1.11,0.19-1.66,0.27c-0.25,0.04-0.51,0.08-0.76,0.12
			c-0.58,0.09-1.17,0.16-1.75,0.24c-0.22,0.02-0.44,0.05-0.65,0.08c-0.7,0.08-1.4,0.16-2.1,0.22c-0.1,0.01-0.2,0.03-0.3,0.03
			c-1.64,0.16-3.27,0.26-4.91,0.32c-0.15,0.01-0.3,0.01-0.46,0.02c-0.65,0.02-1.3,0.04-1.95,0.04c-0.21,0.01-0.43,0.01-0.65,0.01
			c-0.59,0-1.18,0-1.76-0.01c-0.24,0-0.48-0.01-0.71-0.01c-0.58-0.02-1.15-0.04-1.73-0.06c-0.23-0.01-0.46-0.02-0.7-0.03
			c-0.59-0.03-1.19-0.06-1.79-0.11c-0.2-0.01-0.4-0.02-0.6-0.04c-0.68-0.05-1.36-0.11-2.03-0.17c-0.12-0.01-0.23-0.02-0.35-0.03
			c-1.63-0.17-3.26-0.38-4.88-0.63c-0.04-0.01-0.07-0.01-0.1-0.02c-0.76-0.12-1.51-0.24-2.26-0.38c-0.15-0.03-0.31-0.06-0.46-0.09
			c-0.63-0.12-1.27-0.24-1.89-0.37c-0.2-0.04-0.39-0.08-0.58-0.13c-0.59-0.12-1.19-0.26-1.79-0.4c-0.19-0.05-0.39-0.09-0.58-0.14
			c-0.61-0.15-1.21-0.3-1.81-0.46c-0.17-0.05-0.35-0.09-0.52-0.14c-0.66-0.18-1.31-0.36-1.95-0.55c-0.12-0.04-0.24-0.07-0.35-0.11
			c-2.34-0.7-4.66-1.49-6.93-2.38c-0.11-0.04-0.22-0.08-0.32-0.12c-0.64-0.25-1.27-0.51-1.9-0.77c-0.06-0.02-0.12-0.05-0.18-0.07
			c-0.07-0.03-0.13-0.06-0.2-0.09c-4.21-1.78-8.28-3.88-12.19-6.28c-0.04-0.02-0.07-0.04-0.1-0.06c-1.68-1.03-3.34-2.13-4.96-3.27
			c-0.12-0.09-0.24-0.18-0.37-0.27c-0.75-0.53-1.48-1.08-2.22-1.63c-0.04-0.04-0.08-0.07-0.12-0.1c-0.77-0.59-1.53-1.19-2.29-1.81
			c-0.12-0.1-0.25-0.21-0.38-0.32c-0.62-0.51-1.23-1.03-1.84-1.56c-0.16-0.13-0.31-0.27-0.46-0.4c-0.72-0.64-1.43-1.28-2.13-1.94
			c-0.04-0.03-0.07-0.07-0.11-0.1c-0.65-0.62-1.28-1.24-1.92-1.87c-0.17-0.18-0.35-0.36-0.52-0.53c-0.56-0.57-1.11-1.14-1.65-1.73
			c-0.11-0.12-0.23-0.24-0.35-0.37c-0.63-0.69-1.25-1.39-1.87-2.1c-0.16-0.19-0.32-0.38-0.49-0.57c-0.46-0.54-0.92-1.09-1.37-1.65
			c-0.18-0.23-0.37-0.46-0.56-0.69c-0.57-0.72-1.13-1.44-1.68-2.18c-0.13-0.17-0.25-0.35-0.38-0.52c-0.43-0.58-0.85-1.17-1.26-1.76
			c-0.23-0.32-0.45-0.64-0.67-0.96c-0.32-0.47-0.64-0.95-0.95-1.43c-0.23-0.34-0.45-0.68-0.67-1.02c-0.44-0.69-0.87-1.39-1.3-2.1
			c-0.08-0.14-0.17-0.27-0.25-0.41c-0.12-0.2-0.22-0.41-0.34-0.61c-0.55-0.93-1.07-1.87-1.59-2.83c-0.03-0.06-0.07-0.12-0.1-0.18
			c-2.97-5.56-5.3-11.28-7.03-17.09c5.76-0.2,11.5-0.79,17.18-1.76c9.14-1.57,18.01-4.1,26.7-7.25c0.69,1.74,1.48,3.47,2.38,5.16
			c0.06,0.11,0.12,0.23,0.18,0.34c0.32,0.57,0.64,1.14,0.97,1.69c0.14,0.24,0.29,0.47,0.44,0.7c0.26,0.42,0.52,0.84,0.79,1.25
			c0.18,0.27,0.37,0.53,0.56,0.8c0.25,0.36,0.5,0.72,0.76,1.07c0.2,0.28,0.41,0.54,0.62,0.82c0.25,0.32,0.51,0.65,0.77,0.97
			c0.22,0.27,0.45,0.54,0.68,0.81c0.26,0.3,0.52,0.6,0.78,0.9l0.72,0.78c0.27,0.29,0.54,0.57,0.82,0.85c0.25,0.25,0.5,0.5,0.76,0.75
			c0.28,0.27,0.56,0.53,0.84,0.79c0.27,0.24,0.53,0.49,0.79,0.72c0.3,0.25,0.59,0.5,0.89,0.75c0.27,0.23,0.54,0.45,0.81,0.67
			c0.31,0.25,0.62,0.48,0.93,0.72c0.27,0.2,0.55,0.42,0.82,0.62c0.33,0.24,0.67,0.47,1.01,0.7c0.27,0.18,0.53,0.37,0.8,0.55
			c0.48,0.31,0.97,0.61,1.47,0.91c0.35,0.22,0.71,0.42,1.07,0.63c0.39,0.22,0.77,0.44,1.17,0.65c0.29,0.16,0.6,0.3,0.9,0.46
			c0.34,0.17,0.69,0.35,1.05,0.52c0.31,0.15,0.63,0.29,0.95,0.43c0.34,0.16,0.69,0.31,1.04,0.46c0.32,0.13,0.65,0.26,0.97,0.39
			c0.35,0.14,0.7,0.27,1.05,0.4c0.34,0.12,0.67,0.24,1,0.35c0.36,0.12,0.71,0.24,1.07,0.35c0.33,0.11,0.67,0.21,1.01,0.31
			c0.36,0.11,0.72,0.21,1.08,0.3c0.34,0.09,0.68,0.18,1.02,0.26c0.37,0.09,0.74,0.18,1.11,0.26c0.34,0.07,0.68,0.14,1.02,0.21
			c0.38,0.07,0.75,0.14,1.13,0.2c0.34,0.06,0.68,0.12,1.01,0.17c0.4,0.06,0.8,0.1,1.19,0.15c0.33,0.04,0.65,0.09,0.98,0.12
			c0.44,0.04,0.88,0.07,1.33,0.1c0.28,0.02,0.56,0.05,0.84,0.07c0.72,0.04,1.43,0.06,2.15,0.07c0.26,0,0.52-0.01,0.77-0.01
			c0.48-0.01,0.95-0.01,1.42-0.03c0.32-0.01,0.63-0.03,0.95-0.05c0.42-0.03,0.84-0.05,1.25-0.08c0.34-0.03,0.67-0.07,1-0.11
			c0.4-0.04,0.8-0.08,1.2-0.14c0.34-0.04,0.68-0.09,1.02-0.15c0.39-0.06,0.79-0.12,1.18-0.19c0.34-0.06,0.68-0.13,1.03-0.2
			c0.39-0.08,0.78-0.17,1.16-0.26c0.35-0.07,0.69-0.16,1.03-0.24c0.38-0.1,0.77-0.21,1.16-0.32c0.34-0.09,0.67-0.19,1.01-0.29
			c0.39-0.12,0.78-0.25,1.16-0.38c0.34-0.11,0.67-0.22,1-0.34c0.27-0.1,0.54-0.21,0.82-0.31c0.53-0.21,1.07-0.42,1.6-0.64
			c0.5-0.22,1-0.43,1.5-0.66c0.14-0.07,0.28-0.13,0.42-0.2c0.65-0.31,1.3-0.63,1.94-0.98c14.12-7.53,22.83-21.22,24.64-35.97
			c0.7-7.18,4.85-13.88,11.68-17.53c0.45-0.24,0.9-0.46,1.36-0.66c0.11-0.05,0.23-0.11,0.35-0.16c0.41-0.17,0.83-0.34,1.25-0.49
			c0.05-0.02,0.09-0.04,0.14-0.05c0.45-0.16,0.9-0.3,1.35-0.43c0.14-0.04,0.28-0.08,0.42-0.11c0.37-0.1,0.75-0.19,1.12-0.27
			c0.1-0.02,0.2-0.04,0.3-0.06c0.44-0.09,0.89-0.15,1.33-0.21c0.16-0.02,0.31-0.04,0.46-0.05c0.35-0.04,0.71-0.07,1.06-0.09
			l0.36-0.03c0.45-0.02,0.9-0.02,1.34-0.02c0.14,0.01,0.27,0.01,0.41,0.02c0.38,0.01,0.76,0.03,1.13,0.07c0.07,0,0.14,0,0.21,0.01
			c0.03,0,0.05,0.01,0.08,0.01c0.45,0.04,0.89,0.1,1.34,0.17c0.09,0.02,0.18,0.03,0.27,0.05c0.37,0.06,0.73,0.13,1.09,0.22
			c0.11,0.02,0.22,0.04,0.33,0.07c0.44,0.11,0.88,0.22,1.31,0.35c0.03,0.01,0.07,0.02,0.1,0.03c0.39,0.13,0.78,0.26,1.17,0.41
			c0.13,0.04,0.25,0.09,0.38,0.14c0.33,0.13,0.65,0.27,0.98,0.41c0.09,0.04,0.18,0.08,0.28,0.12c0.39,0.19,0.78,0.38,1.16,0.59
			c0.12,0.06,0.23,0.13,0.35,0.19c0.29,0.16,0.57,0.33,0.85,0.51c0.12,0.07,0.24,0.14,0.35,0.22c0.37,0.23,0.73,0.48,1.08,0.74
			c0.02,0.01,0.04,0.02,0.05,0.03c0.11,0.08,0.22,0.17,0.33,0.26c0.18,0.13,0.35,0.27,0.53,0.41c0.13,0.11,0.26,0.22,0.39,0.33
			c0.16,0.14,0.32,0.28,0.48,0.42c0.13,0.12,0.27,0.25,0.4,0.38c0.14,0.13,0.29,0.27,0.42,0.41c0.14,0.14,0.28,0.28,0.41,0.43
			c0.13,0.13,0.26,0.27,0.38,0.41c0.14,0.15,0.28,0.31,0.41,0.47c0.12,0.13,0.23,0.27,0.34,0.41c0.14,0.17,0.27,0.33,0.4,0.5
			c0.11,0.15,0.21,0.29,0.32,0.44c0.12,0.17,0.25,0.34,0.37,0.52c0.11,0.17,0.21,0.34,0.32,0.5c0.11,0.17,0.21,0.33,0.32,0.5
			c0.2,0.34,0.4,0.68,0.58,1.03c0.32,0.59,0.6,1.19,0.85,1.79c0.17,0.4,0.31,0.8,0.45,1.2c0.08,0.22,0.17,0.43,0.24,0.65
			c0.11,0.34,0.2,0.69,0.29,1.04c0.08,0.29,0.17,0.58,0.24,0.87c0.05,0.25,0.09,0.5,0.14,0.76c0.06,0.32,0.14,0.65,0.19,0.97
			c0,0,0,0,0,0.01c0.01,0.07,0.01,0.13,0.02,0.2c0.04,0.34,0.06,0.68,0.09,1.01C319.424,218.98,319.464,219.3,319.474,219.62z"/>
		<path style="fill:#F4A640;" d="M356.464,179.18c-2.8,3.59-6.38,6.66-10.64,8.93c-10.35,5.53-22.29,5.07-31.89-0.13l-0.1,0.12
			c-6.41-3.36-13.76-4.75-21.03-3.85c-4.22,0.52-8.42,1.81-12.39,3.94c-10.59,5.64-17.13,15.88-18.56,26.93
			c-0.1,1.36-0.28,2.72-0.54,4.05c-1.88,9.57-7.86,18.24-17.12,23.18c-13.98,7.47-30.86,4.06-40.95-7.28
			c-1.64-1.85-3.1-3.9-4.34-6.16c-0.07-0.12-0.13-0.25-0.2-0.37c-0.66-1.25-1.24-2.52-1.73-3.81c11.62-5.03,22.93-10.93,34.12-16.83
			c23.49-12.39,47.29-25.13,73.3-30.5C321.514,173.87,339.954,173.97,356.464,179.18z"/>
	</g>
</g>
</svg>
