<?xml version="1.0" encoding="utf-8"?>
<svg version="1.1" xmlns="http://www.w3.org/2000/svg" xmlns:xlink="http://www.w3.org/1999/xlink"
	 viewBox="0 0 200 200" xml:space="preserve">
		<g>
			
				<rect x="174.622" y="64.14" transform="matrix(0.7071 -0.7071 0.7071 0.7071 3.3646 148.1229)" style="fill:#787d82;" width="11.72" height="11.72"/>
			
				<rect x="128.49" y="37.67" transform="matrix(0.7071 -0.7071 0.7071 0.7071 8.9819 106.7565)" style="fill:#787d82;" width="9.732" height="9.732"/>
			
				<rect x="178.448" y="86.753" transform="matrix(0.7071 -0.7071 0.7071 0.7071 -11.0932 156.4577)" style="fill:#787d82;" width="9.732" height="9.732"/>
			
				<rect x="157.711" y="35.729" transform="matrix(0.7071 -0.7071 0.7071 0.7071 19.3664 125.7546)" style="fill:#787d82;" width="7.542" height="7.542"/>
			
				<rect x="186.545" y="76.229" transform="matrix(0.7071 -0.7071 0.7071 0.7071 -0.8263 158.0051)" style="fill:#787d82;" width="7.542" height="7.542"/>
			
				<rect x="184.45" y="43.634" transform="matrix(0.7071 -0.7071 0.7071 0.7071 21.1546 148.0718)" style="fill:#787d82;" width="9.732" height="9.732"/>
			
				<rect x="161.897" y="45.142" transform="matrix(0.7071 -0.7071 0.7071 0.7071 12.0886 135.9342)" style="fill:#787d82;" width="16.467" height="16.467"/>
			
				<rect x="140.993" y="39.219" transform="matrix(0.7071 -0.7071 0.7071 0.7071 11.0135 117.3415)" style="fill:#787d82;" width="12.315" height="12.315"/>
			<g>
			
			</g>
			<path style="fill:#ff83dc;" d="M173.066,76.417l-8.333-8.333l2.5-2.5l-11.417-11.417l-2.917,2.917l-6-6l-4.833,4.833l-8.25-8.25
				l-3.417,3.417l-6.632-6.632c-12.778,6.944-21.452,20.483-21.452,36.048c0,22.644,18.356,41,41,41
				c16.095,0,30.015-9.279,36.726-22.774l-6.309-6.309l3-3l-8.333-8.333L173.066,76.417z M143.316,103.5c-12.703,0-23-10.298-23-23
				c0-12.703,10.297-23,23-23s23,10.297,23,23C166.316,93.202,156.018,103.5,143.316,103.5z"/>
			
				<rect x="174.622" y="62.14" transform="matrix(0.7071 -0.7071 0.7071 0.7071 4.7788 147.5371)" style="fill:#ff83dc;" width="11.72" height="11.72"/>
			
				<rect x="128.49" y="35.67" transform="matrix(0.7071 -0.7071 0.7071 0.7071 10.3962 106.1707)" style="fill:#f8f8f8;" width="9.732" height="9.732"/>
			
				<rect x="178.448" y="84.753" transform="matrix(0.7071 -0.7071 0.7071 0.7071 -9.679 155.8719)" style="fill:#ff83dc;" width="9.732" height="9.732"/>
			
				<rect x="157.711" y="33.729" transform="matrix(0.7071 -0.7071 0.7071 0.7071 20.7806 125.1688)" style="fill:#f8f8f8;" width="7.542" height="7.542"/>
			
				<rect x="186.545" y="74.229" transform="matrix(0.7071 -0.7071 0.7071 0.7071 0.5879 157.4193)" style="fill:#f8f8f8;" width="7.542" height="7.542"/>
			
				<rect x="184.45" y="41.634" transform="matrix(0.7071 -0.7071 0.7071 0.7071 22.5688 147.486)" style="fill:#ff83dc;" width="9.732" height="9.732"/>
			
				<rect x="161.897" y="43.142" transform="matrix(0.7071 -0.7071 0.7071 0.7071 13.5028 135.3484)" style="fill:#f8f8f8;" width="16.467" height="16.467"/>
			
				<rect x="140.993" y="37.219" transform="matrix(0.7071 -0.7071 0.7071 0.7071 12.4277 116.7557)" style="fill:#ff83dc;" width="12.315" height="12.315"/>
		</g>
</svg>
