<?xml version="1.0" standalone="no"?>
<!DOCTYPE svg PUBLIC "-//W3C//DTD SVG 20010904//EN"
 "http://www.w3.org/TR/2001/REC-SVG-20010904/DTD/svg10.dtd">
<svg version="1.0" xmlns="http://www.w3.org/2000/svg"
 width="254.000000pt" height="538.000000pt" viewBox="0 0 254.000000 538.000000"
 preserveAspectRatio="xMidYMid meet">

<g transform="translate(0.000000,538.000000) scale(0.100000,-0.100000)"
fill="#000000" stroke="none">
<path d="M329 5151 c-105 -34 -184 -104 -237 -211 -27 -55 -27 -56 -30 -302
-2 -143 -7 -248 -13 -248 -5 0 -9 -43 -9 -95 0 -57 4 -95 10 -95 6 0 10 -35
10 -85 0 -50 -4 -85 -10 -85 -6 0 -10 -68 -10 -185 0 -117 4 -185 10 -185 6 0
10 -22 10 -50 0 -27 -4 -50 -10 -50 -6 0 -10 -68 -10 -185 0 -114 4 -185 10
-185 6 0 11 -469 12 -1332 l3 -1333 26 -55 c41 -85 99 -144 187 -187 l76 -38
910 0 911 0 65 31 c116 56 197 160 220 283 6 35 10 535 10 1407 0 745 3 1354
8 1354 9 0 9 576 -1 586 -4 4 -7 206 -7 449 0 257 -4 465 -10 496 -24 125
-103 228 -218 282 l-67 32 -895 2 c-838 2 -899 1 -951 -16z m1863 -124 c32
-16 73 -47 92 -69 72 -83 66 99 64 -2273 l-3 -2140 -27 -46 c-33 -56 -76 -94
-138 -123 -45 -21 -53 -21 -915 -21 l-870 0 -53 24 c-61 27 -134 103 -154 159
-11 30 -13 432 -13 2172 0 2023 1 2137 18 2173 38 81 124 150 207 168 19 4
418 6 885 6 l850 -2 57 -28z"/>
<path d="M1019 4960 c-25 -25 -30 -36 -24 -58 3 -15 15 -36 26 -47 18 -19 33
-20 245 -20 225 0 226 0 245 24 24 30 24 72 0 102 -19 24 -22 24 -240 27
l-221 3 -31 -31z"/>
</g>
</svg>
