<?xml version="1.0" standalone="no"?>
<!DOCTYPE svg PUBLIC "-//W3C//DTD SVG 20010904//EN"
 "http://www.w3.org/TR/2001/REC-SVG-20010904/DTD/svg10.dtd">
<svg version="1.0" xmlns="http://www.w3.org/2000/svg"
 width="626.000000pt" height="626.000000pt" viewBox="0 0 626.000000 626.000000"
 preserveAspectRatio="xMidYMid meet">

<g transform="translate(0.000000,626.000000) scale(0.100000,-0.100000)"
fill="#000000" stroke="none">
<path d="M3290 5158 c0 -31 -7 -54 -21 -72 -45 -57 -35 -56 -572 -56 -557 0
-578 -2 -721 -77 -99 -53 -228 -183 -281 -283 -79 -152 -78 -146 -83 -767 l-3
-553 38 0 c162 1 336 118 417 280 44 88 46 110 11 110 -68 0 -125 59 -125 129
0 81 59 141 139 141 l31 0 0 141 c0 77 5 149 10 159 6 11 27 24 48 30 23 6
246 10 614 10 567 0 578 0 635 22 186 69 288 215 287 413 -2 212 -160 386
-376 412 l-48 6 0 -45z"/>
<path d="M2476 3999 c-58 -16 -107 -90 -86 -130 13 -23 39 -22 51 4 5 9 13 25
17 34 25 51 82 42 105 -18 13 -33 20 -40 39 -37 45 6 31 91 -21 127 -33 23
-68 30 -105 20z"/>
<path d="M3183 3965 c-29 -29 -34 -40 -31 -72 3 -32 6 -38 27 -38 18 0 26 8
35 34 14 44 37 58 73 46 19 -7 31 -21 38 -43 9 -31 35 -49 55 -37 15 9 12 52
-5 85 -22 43 -53 60 -108 60 -43 0 -54 -5 -84 -35z"/>
<path d="M2693 3813 c9 -50 53 -112 99 -135 84 -44 168 -31 234 36 39 38 70
108 58 128 -3 4 -93 8 -201 8 l-196 0 6 -37z"/>
<path d="M2680 3343 c0 -4 24 -32 54 -63 l54 -55 -59 -295 -60 -295 83 -77 82
-77 55 49 c31 26 69 61 84 78 l28 29 -59 296 -59 296 54 53 c29 29 53 56 53
60 0 4 -70 8 -155 8 -85 0 -155 -3 -155 -7z"/>
<path d="M2330 2415 c0 -3 21 -15 46 -25 57 -25 134 -79 134 -95 0 -17 -133
-71 -208 -85 -34 -6 -105 -10 -157 -9 -64 1 -100 -3 -110 -11 -13 -10 -15 -50
-15 -241 0 -224 0 -228 23 -255 34 -39 100 -40 133 -1 22 26 24 37 24 131 l0
102 98 12 c106 12 200 41 304 93 37 18 70 30 74 27 14 -15 25 -92 29 -207 3
-72 9 -129 16 -137 17 -21 438 -20 479 1 40 21 57 73 36 114 -9 16 -22 33 -28
38 -7 4 -62 10 -123 13 l-110 5 -7 80 c-7 92 -29 178 -63 253 l-24 52 44 75
45 75 -320 0 c-176 0 -320 -2 -320 -5z"/>
</g>
</svg>
